# xmcd
#
# Track frame offsets: 
#        150
#        24072
#        43845
#        63225
#        83517
#        101545
#        124217
#        142525
#        157127
#        178392
#        196517
#        217480
#
# Disc length: 3133 seconds
#
# Revision: 2
# Processed by: cddbd v1.5.2PL0 Copyright (c) Steve Scherf et al.
# Submitted via: ExactAudioCopy v0.95b3
#
DISCID=9f0c3b0c
DTITLE=Various Artist - best of 80s hit radio
DYEAR=2006
DGENRE=
TTITLE0=bruce hornsby and the range - mandolin rain
TTITLE1=ciyndi lauper - change of heart
TTITLE2=expose - come go with me
TTITLE3=europe - carrie
TTITLE4=aretha franklin and george michael - i knew you were waiting (fo
TTITLE4=r me)
TTITLE5=lisa lisa and cult jam - head to toe
TTITLE6=gregory abbott - shake you down
TTITLE7=bangles - walking down your street
TTITLE8=outfield - since you've been gone
TTITLE9=reo speedwagon - that ain't love
TTITLE10=loverboy - notorious
TTITLE11=eddie money - i wanna go back
EXTD=
EXTT0=
EXTT1=
EXTT2=
EXTT3=
EXTT4=
EXTT5=
EXTT6=
EXTT7=
EXTT8=
EXTT9=
EXTT10=
EXTT11=
PLAYORDER=
